<?xml version="1.0" encoding="utf-8"?>
<!-- Generator: Adobe Illustrator 27.5.0, SVG Export Plug-In . SVG Version: 6.00 Build 0)  -->
<svg version="1.1" xmlns="http://www.w3.org/2000/svg" xmlns:xlink="http://www.w3.org/1999/xlink" x="0px" y="0px"
	 viewBox="0 0 500 500" style="enable-background:new 0 0 500 500;" xml:space="preserve">
<g id="BACKGROUND">
	<g>
		<rect style="fill:#FFFFFF;" width="500" height="500"/>
	</g>
</g>
<g id="DESIGNED_BY_FREEPIK">
	<g>
		<g>
			<path style="fill:#333132;" d="M180.307,480.67v-0.161c-0.217,0.249-0.432,0.453-0.645,0.608
				c-0.211,0.157-0.44,0.274-0.688,0.355c-0.247,0.084-0.517,0.122-0.81,0.122c-0.389,0-0.749-0.082-1.078-0.245
				c-0.331-0.165-0.616-0.399-0.858-0.704c-0.241-0.304-0.424-0.662-0.549-1.074c-0.125-0.411-0.188-0.857-0.188-1.335
				c0-1.015,0.248-1.804,0.742-2.37c0.494-0.565,1.146-0.849,1.953-0.849c0.467,0,0.861,0.08,1.182,0.241
				c0.32,0.16,0.633,0.408,0.938,0.737v-2.39c0-0.335,0.066-0.585,0.199-0.755c0.132-0.17,0.321-0.256,0.566-0.256
				c0.246,0,0.434,0.078,0.568,0.234c0.131,0.157,0.199,0.388,0.199,0.692v7.147c0,0.309-0.071,0.54-0.215,0.695
				c-0.143,0.152-0.326,0.229-0.553,0.229c-0.221,0-0.404-0.079-0.549-0.239C180.379,481.194,180.307,480.966,180.307,480.67z
				 M177.12,478.289c0,0.439,0.068,0.813,0.204,1.123c0.137,0.308,0.323,0.54,0.561,0.696c0.238,0.156,0.497,0.235,0.778,0.235
				c0.284,0,0.544-0.074,0.78-0.223c0.235-0.148,0.424-0.376,0.563-0.684c0.142-0.306,0.212-0.69,0.212-1.148
				c0-0.432-0.07-0.803-0.212-1.113c-0.14-0.311-0.329-0.548-0.569-0.713c-0.24-0.163-0.501-0.245-0.787-0.245
				c-0.297,0-0.561,0.084-0.795,0.252c-0.234,0.168-0.414,0.409-0.543,0.724C177.184,477.509,177.12,477.873,177.12,478.289z"/>
			<path style="fill:#333132;" d="M187.453,478.699h-3.169c0.004,0.368,0.077,0.692,0.222,0.973
				c0.145,0.281,0.338,0.494,0.576,0.635c0.24,0.143,0.504,0.214,0.793,0.214c0.193,0,0.371-0.022,0.531-0.066
				c0.16-0.047,0.315-0.118,0.466-0.216c0.149-0.096,0.29-0.2,0.415-0.311c0.127-0.111,0.291-0.263,0.493-0.451
				c0.083-0.071,0.201-0.107,0.356-0.107c0.166,0,0.301,0.046,0.402,0.138c0.104,0.091,0.156,0.218,0.156,0.386
				c0,0.145-0.059,0.315-0.173,0.513c-0.116,0.196-0.288,0.384-0.52,0.564c-0.23,0.181-0.521,0.329-0.873,0.448
				c-0.348,0.12-0.752,0.178-1.207,0.178c-1.041,0-1.85-0.297-2.428-0.89c-0.577-0.593-0.866-1.398-0.866-2.416
				c0-0.479,0.071-0.924,0.214-1.332c0.143-0.41,0.35-0.762,0.622-1.054c0.273-0.293,0.61-0.518,1.009-0.674
				c0.4-0.156,0.844-0.234,1.332-0.234c0.632,0,1.175,0.133,1.627,0.399c0.455,0.268,0.794,0.613,1.02,1.035
				c0.226,0.424,0.339,0.855,0.339,1.294c0,0.409-0.118,0.673-0.35,0.794C188.207,478.638,187.877,478.699,187.453,478.699z
				 M184.284,477.779h2.939c-0.039-0.554-0.19-0.97-0.448-1.244c-0.26-0.276-0.601-0.412-1.024-0.412
				c-0.404,0-0.736,0.139-0.994,0.417C184.496,476.819,184.339,477.232,184.284,477.779z"/>
			<path style="fill:#333132;" d="M194.838,479.477c0,0.446-0.107,0.829-0.326,1.148c-0.219,0.318-0.539,0.56-0.965,0.725
				c-0.426,0.163-0.943,0.245-1.553,0.245c-0.581,0-1.08-0.088-1.496-0.268c-0.416-0.177-0.723-0.399-0.92-0.666
				c-0.197-0.268-0.297-0.536-0.297-0.806c0-0.179,0.063-0.329,0.191-0.456c0.125-0.126,0.286-0.189,0.48-0.189
				c0.17,0,0.299,0.041,0.391,0.125c0.092,0.082,0.178,0.199,0.262,0.349c0.166,0.29,0.365,0.504,0.597,0.648
				c0.231,0.142,0.547,0.214,0.947,0.214c0.324,0,0.591-0.074,0.798-0.218c0.208-0.145,0.311-0.31,0.311-0.496
				c0-0.285-0.107-0.491-0.323-0.622c-0.217-0.13-0.572-0.257-1.066-0.375c-0.557-0.138-1.012-0.284-1.361-0.438
				c-0.351-0.151-0.631-0.352-0.84-0.602c-0.211-0.249-0.316-0.556-0.316-0.921c0-0.322,0.098-0.631,0.291-0.92
				c0.194-0.287,0.48-0.519,0.859-0.691c0.378-0.172,0.834-0.259,1.367-0.259c0.42,0,0.798,0.043,1.131,0.132
				c0.335,0.085,0.613,0.204,0.838,0.35c0.223,0.146,0.395,0.309,0.51,0.486c0.117,0.178,0.174,0.353,0.174,0.522
				c0,0.186-0.061,0.339-0.185,0.458c-0.125,0.117-0.302,0.179-0.532,0.179c-0.166,0-0.309-0.048-0.424-0.145
				c-0.117-0.094-0.25-0.236-0.402-0.426c-0.121-0.159-0.266-0.286-0.432-0.382c-0.167-0.095-0.392-0.142-0.678-0.142
				c-0.293,0-0.535,0.061-0.729,0.188c-0.194,0.124-0.29,0.279-0.29,0.465c0,0.172,0.07,0.31,0.212,0.419
				c0.144,0.109,0.335,0.2,0.577,0.27c0.24,0.071,0.572,0.158,0.998,0.261c0.502,0.123,0.912,0.27,1.23,0.439
				c0.318,0.17,0.56,0.37,0.725,0.603C194.756,478.916,194.838,479.18,194.838,479.477z"/>
			<path style="fill:#333132;" d="M196.494,474.253c-0.227,0-0.419-0.07-0.58-0.208c-0.16-0.138-0.239-0.335-0.239-0.589
				c0-0.229,0.081-0.416,0.245-0.566c0.164-0.148,0.357-0.223,0.574-0.223c0.209,0,0.395,0.066,0.558,0.202
				c0.162,0.135,0.243,0.33,0.243,0.587c0,0.251-0.08,0.444-0.238,0.585C196.898,474.182,196.711,474.253,196.494,474.253z
				 M197.295,475.926v4.685c0,0.324-0.078,0.569-0.23,0.735c-0.156,0.166-0.352,0.249-0.589,0.249c-0.237,0-0.431-0.084-0.579-0.255
				c-0.148-0.17-0.222-0.413-0.222-0.729v-4.637c0-0.319,0.073-0.561,0.222-0.724c0.148-0.162,0.342-0.244,0.579-0.244
				c0.237,0,0.433,0.082,0.589,0.244C197.217,475.412,197.295,475.639,197.295,475.926z"/>
			<path style="fill:#333132;" d="M204.395,476.193v4.707c0,0.538-0.058,1.002-0.174,1.391c-0.113,0.387-0.298,0.707-0.552,0.961
				c-0.253,0.253-0.585,0.441-0.993,0.563c-0.409,0.123-0.92,0.185-1.529,0.185c-0.557,0-1.057-0.078-1.496-0.234
				c-0.438-0.158-0.776-0.359-1.015-0.605c-0.237-0.248-0.356-0.502-0.356-0.764c0-0.197,0.068-0.359,0.201-0.482
				c0.135-0.127,0.299-0.189,0.488-0.189c0.236,0,0.445,0.105,0.623,0.316c0.087,0.106,0.176,0.214,0.27,0.323
				c0.094,0.109,0.197,0.202,0.309,0.279c0.113,0.077,0.248,0.134,0.407,0.173c0.157,0.036,0.341,0.055,0.546,0.055
				c0.42,0,0.745-0.058,0.977-0.175c0.232-0.116,0.395-0.28,0.486-0.49c0.093-0.208,0.148-0.433,0.164-0.674
				c0.016-0.238,0.027-0.623,0.035-1.154c-0.25,0.349-0.537,0.614-0.864,0.796c-0.326,0.182-0.716,0.273-1.165,0.273
				c-0.543,0-1.016-0.139-1.423-0.417c-0.405-0.276-0.718-0.663-0.935-1.163c-0.217-0.498-0.326-1.074-0.326-1.727
				c0-0.486,0.065-0.927,0.199-1.317c0.133-0.394,0.32-0.723,0.566-0.992c0.244-0.269,0.527-0.472,0.848-0.608
				c0.32-0.136,0.673-0.205,1.057-0.205c0.459,0,0.857,0.09,1.195,0.264c0.336,0.177,0.648,0.453,0.938,0.829v-0.22
				c0-0.28,0.068-0.498,0.207-0.653c0.139-0.153,0.317-0.231,0.534-0.231c0.313,0,0.52,0.103,0.622,0.307
				C204.343,475.516,204.395,475.81,204.395,476.193z M199.697,478.248c0,0.656,0.145,1.153,0.432,1.489
				c0.287,0.337,0.658,0.505,1.113,0.505c0.269,0,0.522-0.072,0.762-0.217c0.24-0.145,0.435-0.363,0.586-0.653
				c0.148-0.29,0.225-0.644,0.225-1.06c0-0.66-0.145-1.176-0.436-1.543c-0.292-0.367-0.674-0.552-1.148-0.552
				c-0.465,0-0.836,0.176-1.113,0.528C199.838,477.098,199.697,477.598,199.697,478.248z"/>
			<path style="fill:#333132;" d="M206.97,475.903v0.195c0.284-0.377,0.596-0.651,0.935-0.828c0.338-0.176,0.727-0.265,1.166-0.265
				c0.428,0,0.81,0.095,1.146,0.279c0.336,0.187,0.588,0.449,0.754,0.789c0.106,0.198,0.176,0.412,0.207,0.642
				c0.031,0.23,0.049,0.523,0.049,0.879v3.016c0,0.324-0.074,0.569-0.224,0.735c-0.147,0.166-0.341,0.249-0.579,0.249
				c-0.241,0-0.437-0.084-0.586-0.255c-0.152-0.17-0.227-0.413-0.227-0.729v-2.702c0-0.533-0.074-0.942-0.223-1.226
				c-0.148-0.282-0.443-0.425-0.889-0.425c-0.287,0-0.551,0.087-0.788,0.26c-0.237,0.172-0.413,0.408-0.522,0.709
				c-0.08,0.241-0.119,0.692-0.119,1.354v2.03c0,0.327-0.076,0.574-0.229,0.739c-0.151,0.163-0.35,0.245-0.59,0.245
				c-0.234,0-0.426-0.084-0.576-0.255c-0.15-0.17-0.227-0.413-0.227-0.729v-4.685c0-0.309,0.068-0.539,0.202-0.691
				c0.134-0.152,0.318-0.229,0.552-0.229c0.143,0,0.273,0.034,0.387,0.102c0.113,0.067,0.207,0.168,0.275,0.302
				C206.936,475.544,206.97,475.709,206.97,475.903z"/>
			<path style="fill:#333132;" d="M216.828,478.699h-3.169c0.003,0.368,0.079,0.692,0.222,0.973
				c0.146,0.281,0.338,0.494,0.576,0.635c0.24,0.143,0.504,0.214,0.793,0.214c0.193,0,0.371-0.022,0.531-0.066
				c0.16-0.047,0.315-0.118,0.465-0.216c0.151-0.096,0.289-0.2,0.417-0.311c0.126-0.111,0.29-0.263,0.492-0.451
				c0.083-0.071,0.202-0.107,0.356-0.107c0.166,0,0.301,0.046,0.404,0.138c0.103,0.091,0.153,0.218,0.153,0.386
				c0,0.145-0.058,0.315-0.172,0.513c-0.114,0.196-0.288,0.384-0.52,0.564c-0.232,0.181-0.521,0.329-0.871,0.448
				c-0.35,0.12-0.753,0.178-1.209,0.178c-1.041,0-1.85-0.297-2.428-0.89c-0.577-0.593-0.866-1.398-0.866-2.416
				c0-0.479,0.071-0.924,0.214-1.332c0.143-0.41,0.35-0.762,0.623-1.054c0.272-0.293,0.609-0.518,1.009-0.674
				c0.399-0.156,0.843-0.234,1.331-0.234c0.631,0,1.175,0.133,1.628,0.399c0.454,0.268,0.794,0.613,1.019,1.035
				c0.225,0.424,0.338,0.855,0.338,1.294c0,0.409-0.117,0.673-0.35,0.794C217.582,478.638,217.253,478.699,216.828,478.699z
				 M213.659,477.779h2.939c-0.039-0.554-0.19-0.97-0.448-1.244c-0.26-0.276-0.601-0.412-1.024-0.412
				c-0.403,0-0.736,0.139-0.994,0.417C213.871,476.819,213.715,477.232,213.659,477.779z"/>
			<path style="fill:#333132;" d="M223.435,480.67v-0.161c-0.218,0.249-0.433,0.453-0.644,0.608
				c-0.213,0.157-0.441,0.274-0.688,0.355c-0.248,0.084-0.518,0.122-0.811,0.122c-0.389,0-0.748-0.082-1.078-0.245
				c-0.33-0.165-0.617-0.399-0.857-0.704c-0.242-0.304-0.425-0.662-0.549-1.074c-0.125-0.411-0.188-0.857-0.188-1.335
				c0-1.015,0.247-1.804,0.741-2.37c0.495-0.565,1.146-0.849,1.953-0.849c0.468,0,0.862,0.08,1.182,0.241
				c0.321,0.16,0.634,0.408,0.938,0.737v-2.39c0-0.335,0.067-0.585,0.198-0.755c0.134-0.17,0.322-0.256,0.568-0.256
				c0.246,0,0.434,0.078,0.566,0.234c0.133,0.157,0.199,0.388,0.199,0.692v7.147c0,0.309-0.07,0.54-0.213,0.695
				c-0.145,0.152-0.326,0.229-0.553,0.229c-0.223,0-0.405-0.079-0.549-0.239C223.506,481.194,223.435,480.966,223.435,480.67z
				 M220.248,478.289c0,0.439,0.068,0.813,0.205,1.123c0.135,0.308,0.322,0.54,0.561,0.696c0.236,0.156,0.496,0.235,0.777,0.235
				c0.285,0,0.545-0.074,0.78-0.223c0.235-0.148,0.424-0.376,0.564-0.684c0.14-0.306,0.21-0.69,0.21-1.148
				c0-0.432-0.07-0.803-0.21-1.113c-0.141-0.311-0.331-0.548-0.569-0.713c-0.241-0.163-0.502-0.245-0.789-0.245
				c-0.295,0-0.561,0.084-0.794,0.252c-0.233,0.168-0.415,0.409-0.544,0.724C220.311,477.509,220.248,477.873,220.248,478.289z"/>
			<path style="fill:#333132;" d="M230.059,473.522v2.474c0.305-0.314,0.615-0.559,0.932-0.726c0.316-0.168,0.709-0.253,1.176-0.253
				c0.539,0,1.01,0.129,1.416,0.383c0.405,0.256,0.719,0.625,0.943,1.11c0.225,0.484,0.336,1.061,0.336,1.726
				c0,0.49-0.063,0.94-0.187,1.35c-0.126,0.41-0.306,0.765-0.544,1.065c-0.237,0.3-0.525,0.533-0.863,0.698
				c-0.338,0.163-0.712,0.245-1.119,0.245c-0.25,0-0.484-0.029-0.703-0.088c-0.221-0.06-0.407-0.138-0.563-0.235
				c-0.153-0.096-0.285-0.196-0.395-0.299c-0.107-0.103-0.252-0.258-0.43-0.464v0.161c0,0.304-0.074,0.535-0.221,0.691
				c-0.145,0.156-0.332,0.233-0.557,0.233c-0.23,0-0.414-0.077-0.549-0.233c-0.137-0.156-0.205-0.388-0.205-0.691v-7.076
				c0-0.329,0.066-0.578,0.197-0.744c0.133-0.169,0.319-0.254,0.557-0.254c0.25,0,0.441,0.08,0.575,0.241
				C229.99,472.998,230.059,473.225,230.059,473.522z M230.137,478.337c0,0.645,0.146,1.141,0.441,1.486
				c0.294,0.347,0.682,0.521,1.16,0.521c0.407,0,0.759-0.178,1.055-0.532c0.294-0.354,0.441-0.862,0.441-1.522
				c0-0.427-0.061-0.795-0.184-1.104c-0.123-0.31-0.297-0.547-0.521-0.715c-0.227-0.168-0.49-0.252-0.791-0.252
				c-0.309,0-0.584,0.084-0.824,0.252c-0.242,0.168-0.432,0.411-0.57,0.729C230.205,477.518,230.137,477.897,230.137,478.337z"/>
			<path style="fill:#333132;" d="M236.963,481.798l0.148-0.362l-1.995-5.022c-0.121-0.288-0.184-0.499-0.184-0.63
				c0-0.138,0.036-0.266,0.107-0.384c0.072-0.12,0.169-0.216,0.293-0.287c0.125-0.071,0.254-0.106,0.389-0.106
				c0.233,0,0.41,0.074,0.529,0.224c0.119,0.148,0.223,0.36,0.314,0.637l1.371,3.989l1.3-3.71c0.102-0.3,0.196-0.535,0.28-0.707
				c0.082-0.169,0.17-0.284,0.263-0.343c0.093-0.059,0.226-0.09,0.396-0.09c0.123,0,0.24,0.033,0.354,0.099
				c0.111,0.064,0.199,0.153,0.261,0.264c0.061,0.111,0.093,0.228,0.093,0.351c-0.018,0.074-0.041,0.182-0.078,0.32
				c-0.035,0.139-0.08,0.28-0.131,0.422l-2.113,5.531c-0.182,0.488-0.359,0.869-0.534,1.146c-0.175,0.277-0.403,0.491-0.69,0.639
				c-0.289,0.148-0.674,0.224-1.161,0.224c-0.476,0-0.831-0.051-1.068-0.154c-0.237-0.104-0.356-0.291-0.356-0.565
				c0-0.185,0.057-0.329,0.17-0.429c0.112-0.102,0.279-0.153,0.5-0.153c0.088,0,0.174,0.013,0.256,0.037
				c0.104,0.022,0.192,0.035,0.267,0.035c0.187,0,0.333-0.027,0.439-0.083c0.108-0.055,0.203-0.151,0.288-0.288
				C236.754,482.265,236.852,482.063,236.963,481.798z"/>
		</g>
		<g>
			<path style="fill:#333132;" d="M260.439,475.147h0.387v-0.486c0-0.509,0.063-0.91,0.191-1.211
				c0.127-0.299,0.346-0.516,0.654-0.653c0.307-0.135,0.727-0.204,1.26-0.204c0.949,0,1.42,0.23,1.42,0.697
				c0,0.148-0.049,0.277-0.148,0.384c-0.098,0.106-0.215,0.16-0.35,0.16c-0.063,0-0.174-0.012-0.33-0.037
				c-0.146-0.021-0.281-0.036-0.389-0.036c-0.293,0-0.479,0.089-0.565,0.261c-0.08,0.172-0.123,0.417-0.123,0.74v0.386h0.395
				c0.619,0,0.926,0.185,0.926,0.56c0,0.262-0.078,0.431-0.246,0.503c-0.162,0.07-0.389,0.106-0.68,0.106h-0.395v4.295
				c0,0.319-0.076,0.561-0.23,0.729c-0.152,0.171-0.348,0.254-0.59,0.254c-0.231,0-0.42-0.083-0.574-0.254
				c-0.152-0.168-0.227-0.41-0.227-0.729v-4.295h-0.447c-0.242,0-0.426-0.052-0.559-0.164c-0.129-0.105-0.195-0.248-0.195-0.423
				C259.625,475.339,259.896,475.147,260.439,475.147"/>
			<path style="fill:#333132;" d="M265.746,479.256v1.355c0,0.327-0.084,0.574-0.234,0.737c-0.154,0.165-0.35,0.246-0.588,0.246
				c-0.236,0-0.428-0.082-0.576-0.25c-0.148-0.165-0.227-0.41-0.227-0.733v-4.515c0-0.729,0.262-1.093,0.787-1.093
				c0.271,0,0.465,0.085,0.584,0.256c0.119,0.171,0.186,0.42,0.197,0.755c0.193-0.335,0.393-0.584,0.594-0.755
				c0.209-0.171,0.477-0.256,0.818-0.256c0.344,0,0.67,0.085,0.992,0.256c0.32,0.171,0.48,0.398,0.48,0.678
				c0,0.195-0.068,0.362-0.203,0.488c-0.137,0.13-0.285,0.194-0.441,0.194c-0.063,0-0.207-0.038-0.432-0.112
				c-0.23-0.071-0.432-0.108-0.602-0.108c-0.238,0-0.436,0.064-0.584,0.187c-0.15,0.128-0.27,0.311-0.352,0.555
				c-0.082,0.246-0.137,0.54-0.172,0.878C265.758,478.354,265.746,478.77,265.746,479.256"/>
			<path style="fill:#333132;" d="M273.195,478.697h-3.172c0.006,0.367,0.078,0.694,0.223,0.974c0.146,0.28,0.338,0.492,0.576,0.636
				c0.242,0.143,0.504,0.213,0.795,0.213c0.193,0,0.369-0.021,0.531-0.07c0.158-0.043,0.314-0.115,0.465-0.213
				c0.152-0.095,0.287-0.199,0.414-0.313c0.127-0.108,0.293-0.26,0.496-0.448c0.084-0.071,0.201-0.109,0.354-0.109
				c0.168,0,0.301,0.047,0.406,0.14c0.103,0.091,0.152,0.218,0.152,0.385c0,0.147-0.057,0.317-0.168,0.512
				c-0.115,0.199-0.289,0.386-0.521,0.566c-0.234,0.179-0.525,0.329-0.875,0.447c-0.348,0.117-0.752,0.178-1.207,0.178
				c-1.043,0-1.852-0.296-2.43-0.889c-0.576-0.595-0.869-1.401-0.869-2.417c0-0.479,0.074-0.925,0.219-1.334
				c0.141-0.412,0.348-0.761,0.623-1.056c0.273-0.293,0.607-0.518,1.01-0.674c0.396-0.155,0.84-0.233,1.328-0.233
				c0.633,0,1.176,0.134,1.631,0.403c0.449,0.265,0.795,0.61,1.016,1.034c0.227,0.425,0.34,0.854,0.34,1.296
				c0,0.406-0.117,0.67-0.35,0.792C273.947,478.637,273.619,478.697,273.195,478.697 M270.023,477.775h2.939
				c-0.039-0.554-0.188-0.968-0.445-1.241c-0.262-0.276-0.6-0.413-1.025-0.413c-0.404,0-0.736,0.138-0.996,0.419
				C270.238,476.818,270.078,477.229,270.023,477.775"/>
			<path style="fill:#333132;" d="M279.938,478.697h-3.17c0.004,0.367,0.078,0.694,0.221,0.974c0.145,0.28,0.336,0.492,0.576,0.636
				c0.238,0.143,0.504,0.213,0.795,0.213c0.191,0,0.369-0.021,0.527-0.07c0.162-0.043,0.316-0.115,0.469-0.213
				c0.15-0.095,0.287-0.199,0.414-0.313c0.125-0.108,0.291-0.26,0.494-0.448c0.084-0.071,0.203-0.109,0.355-0.109
				c0.166,0,0.301,0.047,0.404,0.14c0.104,0.091,0.152,0.218,0.152,0.385c0,0.147-0.055,0.317-0.172,0.512
				c-0.111,0.199-0.285,0.386-0.52,0.566c-0.23,0.179-0.523,0.329-0.871,0.447c-0.348,0.117-0.756,0.178-1.209,0.178
				c-1.043,0-1.85-0.296-2.43-0.889c-0.576-0.595-0.867-1.401-0.867-2.417c0-0.479,0.072-0.925,0.217-1.334
				c0.141-0.412,0.35-0.761,0.623-1.056c0.271-0.293,0.607-0.518,1.008-0.674c0.398-0.155,0.846-0.233,1.33-0.233
				c0.633,0,1.176,0.134,1.633,0.403c0.451,0.265,0.791,0.61,1.014,1.034c0.225,0.425,0.34,0.854,0.34,1.296
				c0,0.406-0.117,0.67-0.35,0.792C280.688,478.637,280.359,478.697,279.938,478.697 M276.768,477.775h2.938
				c-0.041-0.554-0.189-0.968-0.447-1.241c-0.262-0.276-0.602-0.413-1.025-0.413c-0.404,0-0.736,0.138-0.996,0.419
				C276.978,476.818,276.82,477.229,276.768,477.775"/>
			<path style="fill:#333132;" d="M283.486,475.915v0.194c0.305-0.376,0.621-0.652,0.955-0.828c0.322-0.178,0.697-0.268,1.111-0.268
				c0.498,0,0.961,0.131,1.381,0.387c0.42,0.259,0.75,0.635,0.992,1.129c0.244,0.497,0.367,1.081,0.367,1.759
				c0,0.497-0.07,0.957-0.209,1.376c-0.141,0.417-0.336,0.767-0.582,1.05c-0.246,0.28-0.535,0.5-0.867,0.653
				c-0.34,0.15-0.695,0.227-1.082,0.227c-0.461,0-0.852-0.093-1.164-0.28c-0.315-0.181-0.615-0.457-0.902-0.815v2.433
				c0,0.709-0.26,1.068-0.777,1.068c-0.307,0-0.506-0.092-0.606-0.274c-0.096-0.186-0.146-0.452-0.146-0.808v-6.995
				c0-0.31,0.066-0.537,0.199-0.692c0.135-0.149,0.32-0.228,0.553-0.228c0.23,0,0.416,0.078,0.56,0.233
				C283.416,475.395,283.486,475.619,283.486,475.915 M286.664,478.27c0-0.428-0.065-0.796-0.197-1.102
				c-0.129-0.309-0.311-0.543-0.539-0.705c-0.23-0.164-0.49-0.248-0.771-0.248c-0.445,0-0.822,0.178-1.129,0.528
				c-0.309,0.354-0.463,0.871-0.463,1.558c0,0.642,0.152,1.146,0.459,1.504c0.305,0.358,0.68,0.537,1.133,0.537
				c0.268,0,0.52-0.079,0.75-0.233c0.23-0.157,0.414-0.392,0.551-0.704C286.594,479.09,286.664,478.712,286.664,478.27"/>
			<path style="fill:#333132;" d="M289.926,474.248c-0.227,0-0.42-0.071-0.578-0.209c-0.162-0.14-0.242-0.332-0.242-0.585
				c0-0.23,0.082-0.419,0.248-0.568c0.164-0.147,0.354-0.223,0.572-0.223c0.213,0,0.397,0.066,0.557,0.199
				c0.162,0.137,0.244,0.335,0.244,0.592c0,0.249-0.078,0.444-0.234,0.585C290.332,474.177,290.145,474.248,289.926,474.248
				 M290.727,475.923v4.688c0,0.322-0.076,0.567-0.23,0.733c-0.156,0.168-0.35,0.25-0.588,0.25c-0.238,0-0.428-0.083-0.58-0.254
				c-0.147-0.172-0.223-0.415-0.223-0.729v-4.642c0-0.318,0.076-0.56,0.223-0.722c0.152-0.165,0.342-0.244,0.58-0.244
				c0.238,0,0.432,0.079,0.588,0.244C290.65,475.409,290.727,475.637,290.727,475.923"/>
			<path style="fill:#333132;" d="M295.951,480.853l-1.428-2.352l-0.879,0.829v1.293c0,0.311-0.084,0.549-0.248,0.717
				c-0.162,0.171-0.353,0.254-0.566,0.254c-0.248,0-0.447-0.082-0.588-0.25c-0.143-0.165-0.215-0.41-0.215-0.733v-6.915
				c0-0.357,0.072-0.632,0.207-0.821c0.141-0.19,0.34-0.282,0.596-0.282c0.248,0,0.445,0.086,0.594,0.258
				c0.146,0.169,0.221,0.42,0.221,0.751v3.933l1.822-1.913c0.227-0.235,0.395-0.401,0.518-0.487c0.117-0.087,0.262-0.13,0.43-0.13
				c0.203,0,0.371,0.065,0.51,0.193c0.133,0.128,0.201,0.29,0.201,0.482c0,0.237-0.221,0.557-0.658,0.952l-0.861,0.788l1.662,2.615
				c0.119,0.194,0.211,0.339,0.264,0.44c0.053,0.1,0.082,0.2,0.082,0.289c0,0.258-0.072,0.46-0.213,0.609
				c-0.141,0.149-0.328,0.221-0.555,0.221c-0.197,0-0.352-0.05-0.457-0.16C296.281,481.326,296.135,481.133,295.951,480.853"/>
			<path style="fill:#333132;" d="M299.475,481.594c-0.246,0-0.455-0.078-0.633-0.238c-0.18-0.155-0.27-0.378-0.27-0.665
				c0-0.241,0.088-0.449,0.256-0.621c0.174-0.175,0.381-0.263,0.631-0.263s0.459,0.088,0.641,0.258
				c0.174,0.172,0.262,0.383,0.262,0.626c0,0.283-0.088,0.506-0.262,0.663C299.918,481.516,299.711,481.594,299.475,481.594"/>
			<path style="fill:#333132;" d="M307.535,479.589c0,0.2-0.061,0.417-0.18,0.646c-0.121,0.232-0.307,0.448-0.557,0.657
				c-0.244,0.207-0.555,0.376-0.932,0.5c-0.377,0.128-0.803,0.192-1.271,0.192c-1.002,0-1.785-0.293-2.348-0.875
				c-0.559-0.585-0.84-1.368-0.84-2.35c0-0.668,0.127-1.254,0.385-1.766c0.256-0.509,0.629-0.904,1.115-1.185
				c0.486-0.278,1.072-0.418,1.746-0.418c0.422,0,0.805,0.061,1.158,0.184c0.35,0.122,0.645,0.282,0.891,0.476
				c0.242,0.196,0.428,0.401,0.555,0.62c0.129,0.22,0.193,0.425,0.193,0.616c0,0.192-0.072,0.357-0.215,0.492
				c-0.147,0.134-0.322,0.202-0.523,0.202c-0.137,0-0.25-0.035-0.34-0.104c-0.09-0.069-0.189-0.181-0.299-0.338
				c-0.197-0.3-0.402-0.526-0.621-0.676c-0.215-0.15-0.488-0.226-0.822-0.226c-0.477,0-0.863,0.186-1.158,0.56
				c-0.293,0.372-0.439,0.888-0.439,1.534c0,0.305,0.039,0.587,0.113,0.843c0.074,0.254,0.184,0.473,0.326,0.651
				c0.145,0.18,0.314,0.316,0.516,0.409c0.203,0.097,0.428,0.142,0.666,0.142c0.326,0,0.603-0.076,0.834-0.226
				c0.236-0.15,0.439-0.379,0.617-0.688c0.098-0.183,0.205-0.324,0.318-0.427c0.113-0.104,0.256-0.156,0.422-0.156
				c0.199,0,0.363,0.076,0.49,0.227C307.469,479.258,307.535,479.419,307.535,479.589"/>
			<path style="fill:#333132;" d="M314.529,478.301c0,0.48-0.074,0.928-0.223,1.336c-0.152,0.408-0.369,0.759-0.654,1.049
				c-0.285,0.293-0.627,0.518-1.021,0.675c-0.398,0.155-0.844,0.234-1.336,0.234c-0.49,0-0.932-0.079-1.326-0.239
				c-0.389-0.155-0.73-0.383-1.016-0.676c-0.287-0.298-0.506-0.645-0.658-1.047c-0.143-0.403-0.219-0.848-0.219-1.332
				c0-0.492,0.078-0.941,0.225-1.35c0.15-0.409,0.367-0.758,0.648-1.046c0.283-0.288,0.621-0.511,1.02-0.669
				c0.402-0.155,0.844-0.233,1.326-0.233c0.49,0,0.936,0.078,1.336,0.239c0.398,0.157,0.74,0.384,1.027,0.674
				c0.287,0.297,0.502,0.644,0.65,1.045C314.455,477.368,314.529,477.81,314.529,478.301 M312.902,478.301
				c0-0.662-0.146-1.176-0.435-1.543c-0.289-0.373-0.682-0.556-1.172-0.556c-0.318,0-0.598,0.083-0.838,0.246
				c-0.242,0.164-0.426,0.405-0.559,0.728c-0.129,0.321-0.195,0.696-0.195,1.125c0,0.424,0.063,0.792,0.193,1.107
				c0.129,0.319,0.313,0.561,0.553,0.729c0.242,0.166,0.522,0.253,0.846,0.253c0.49,0,0.883-0.185,1.172-0.559
				C312.756,479.464,312.902,478.951,312.902,478.301"/>
			<path style="fill:#333132;" d="M320.713,478.418v2.155c0,0.342-0.076,0.595-0.23,0.767c-0.156,0.171-0.357,0.255-0.611,0.255
				c-0.246,0-0.445-0.084-0.596-0.255c-0.154-0.172-0.232-0.425-0.232-0.767v-2.582c0-0.409-0.012-0.727-0.039-0.953
				c-0.029-0.221-0.105-0.408-0.227-0.552c-0.123-0.146-0.318-0.22-0.582-0.22c-0.531,0-0.879,0.182-1.047,0.551
				c-0.168,0.36-0.254,0.884-0.254,1.567v2.188c0,0.336-0.078,0.591-0.227,0.765c-0.156,0.171-0.355,0.257-0.604,0.257
				c-0.248,0-0.447-0.086-0.604-0.257c-0.156-0.174-0.234-0.429-0.234-0.765v-4.637c0-0.306,0.068-0.537,0.209-0.694
				c0.143-0.161,0.328-0.239,0.555-0.239c0.225,0,0.408,0.077,0.559,0.222c0.146,0.149,0.221,0.354,0.221,0.616v0.152
				c0.283-0.334,0.584-0.582,0.902-0.737c0.324-0.162,0.678-0.242,1.072-0.242c0.406,0,0.756,0.082,1.049,0.245
				c0.293,0.162,0.533,0.409,0.725,0.734c0.273-0.33,0.566-0.576,0.881-0.737c0.313-0.161,0.658-0.242,1.039-0.242
				c0.44,0,0.824,0.09,1.147,0.264c0.318,0.173,0.557,0.425,0.715,0.746c0.139,0.296,0.209,0.756,0.209,1.386v3.164
				c0,0.342-0.076,0.595-0.23,0.767c-0.154,0.171-0.359,0.255-0.611,0.255c-0.248,0-0.447-0.086-0.603-0.257
				c-0.156-0.174-0.236-0.429-0.236-0.765v-2.726c0-0.35-0.014-0.628-0.043-0.836c-0.029-0.211-0.109-0.389-0.238-0.53
				c-0.133-0.142-0.332-0.215-0.596-0.215c-0.215,0-0.418,0.067-0.609,0.193c-0.191,0.123-0.342,0.298-0.449,0.507
				C320.773,477.241,320.713,477.725,320.713,478.418"/>
		</g>
		<g>
			<path style="fill:#333132;" d="M245.271,477.907c0-0.002,0-0.007,0-0.011C245.271,477.9,245.271,477.905,245.271,477.907z"/>
			<path style="fill:#333132;" d="M245.354,478.426c0.002,0,0.002,0,0.002,0c-0.031-0.147-0.055-0.294-0.074-0.44
				C245.301,478.133,245.324,478.28,245.354,478.426z"/>
			<path style="fill:#333132;" d="M245.891,479.93c-0.004-0.006-0.008-0.013-0.012-0.02
				C245.883,479.917,245.887,479.924,245.891,479.93z"/>
			<path style="fill:#333132;" d="M245.838,479.83c-0.014-0.028-0.025-0.056-0.039-0.084
				C245.813,479.775,245.824,479.802,245.838,479.83z"/>
			<path style="fill:#333132;" d="M245.504,479.005c0.08,0.251,0.176,0.493,0.285,0.724c-0.111-0.235-0.205-0.478-0.283-0.724
				C245.506,479.005,245.506,479.005,245.504,479.005z"/>
			<path style="fill:#333132;" d="M251.545,471.697c0.314,0,0.545,0.024,0.811,0.07l0.074-0.479c0,0-0.732-0.224-1.693-0.146
				l-0.076-0.259c0.299-0.064,0.523-0.329,0.523-0.646c0-0.365-0.297-0.658-0.66-0.658c-0.365,0-0.66,0.293-0.66,0.658
				c0,0.317,0.225,0.583,0.521,0.646l0.086,0.289c-1.023,0.141-1.836,0.538-1.836,0.538l0.145,0.44
				c0.617-0.205,1.152-0.33,1.639-0.383C250.895,471.72,251.254,471.697,251.545,471.697z"/>
			<path style="fill:#333132;" d="M245.877,474.109l0.004-0.006c0.025-0.03,0.049-0.06,0.07-0.089l-0.195-0.141l-0.305-0.224
				c-0.018,0.024-0.496,0.466-0.875,1.281c-0.016-0.026-0.035-0.051-0.057-0.075c-0.113-0.124-0.271-0.188-0.473-0.185
				c-0.004,0-0.006,0-0.01,0c-0.125,0-0.211-0.041-0.268-0.091c0.057-0.071,0.09-0.159,0.09-0.259c0-0.23-0.188-0.417-0.418-0.417
				s-0.418,0.186-0.418,0.417c0,0.231,0.188,0.419,0.418,0.419c0.035,0,0.07-0.007,0.105-0.014c0.102,0.114,0.264,0.214,0.504,0.208
				c0.123-0.001,0.213,0.031,0.273,0.098c0.068,0.076,0.092,0.185,0.1,0.268c-0.002,0.001-0.002,0.002-0.002,0.002
				c-0.273,0.744-0.195,1.67-0.195,1.67l0.66,0.026c0.014-0.337,0.063-0.927,0.234-1.393
				C245.449,474.699,245.861,474.133,245.877,474.109z"/>
			<path style="fill:#333132;" d="M257.295,472.249c-0.23,0-0.418,0.186-0.418,0.419c0,0.035,0.004,0.07,0.016,0.104
				c-0.115,0.102-0.217,0.266-0.211,0.506c0.002,0.124-0.029,0.212-0.098,0.273c-0.053,0.046-0.119,0.072-0.184,0.088
				c-0.492-0.69-1.098-1.11-1.098-1.11l-0.475,0.509c0.359,0.325,0.725,0.734,1.08,1.244c0.246,0.352,0.498,0.807,0.711,1.26
				l0.639-0.305c0,0-0.291-0.723-0.703-1.37c0.07-0.024,0.143-0.064,0.207-0.12c0.125-0.113,0.188-0.272,0.182-0.475
				c0-0.129,0.043-0.216,0.094-0.275c0.072,0.055,0.16,0.09,0.258,0.09c0.23,0,0.418-0.186,0.418-0.418
				C257.713,472.435,257.525,472.249,257.295,472.249z"/>
			<path style="fill:#333132;" d="M255.635,478.001c-0.883,0.429-2.33,0.996-4.238,1.263c-0.75,0.103-1.475,0.142-2.145,0.142
				c-0.869,0-1.637-0.065-2.227-0.14c-0.672-0.084-1.197-0.188-1.52-0.261c0.078,0.245,0.172,0.488,0.283,0.724
				c0.002,0.006,0.006,0.014,0.01,0.018c0.014,0.028,0.025,0.056,0.039,0.084c0.014,0.027,0.027,0.053,0.041,0.079
				c0.004,0.008,0.008,0.015,0.012,0.02c0.188,0.356,0.416,0.684,0.676,0.969c0.898,0.984,1.816,1.141,1.824,1.141l0.016,0.002
				l0.012,0.005c0.01,0.003,0.822,0.266,2.057,0.266c1.217,0,2.41-0.245,3.547-0.73c0.842-0.431,1.641-1.085,2.033-1.669
				c0.307-0.45,0.527-0.932,0.658-1.433c0.068-0.267,0.123-0.692,0.09-1.141C256.557,477.505,256.164,477.742,255.635,478.001z"/>
			<path style="fill:#333132;" d="M246.16,474.317c-0.025,0.037-0.408,0.579-0.709,1.408c-0.227,0.622-0.217,1.527-0.217,1.537
				v0.002c0,0.213,0.014,0.423,0.037,0.632c0,0.004,0,0.009,0,0.011c0.002,0.027,0.008,0.053,0.01,0.079
				c0.02,0.146,0.043,0.293,0.074,0.44c0.438,0.111,3.049,0.721,5.967,0.314c1.83-0.255,3.221-0.797,4.063-1.205
				c0.701-0.339,1.15-0.647,1.324-0.774c-0.174-0.642-0.65-1.65-1.088-2.279c-1.254-1.79-2.605-2.25-3.299-2.364
				c-0.264-0.043-0.477-0.067-0.777-0.067c-0.279,0-0.625,0.022-1.088,0.071c-0.465,0.048-0.984,0.17-1.584,0.372
				c-0.842,0.282-1.604,0.725-2.205,1.279l-0.02,0.021C246.561,473.874,246.375,474.047,246.16,474.317z M253.828,473.9
				c0.602,0,1.092,0.488,1.092,1.09c0,0.602-0.49,1.09-1.092,1.09c-0.6,0-1.088-0.488-1.088-1.09
				C252.74,474.389,253.229,473.9,253.828,473.9z M248.678,473.857c0.973,0,1.762,0.788,1.762,1.762
				c0,0.971-0.789,1.758-1.762,1.758c-0.973,0-1.76-0.787-1.76-1.758C246.918,474.646,247.705,473.857,248.678,473.857z"/>
		</g>
	</g>
</g>
<g id="OBJECTS">
	<ellipse style="fill:#EEEFED;" cx="250" cy="417" rx="226.5" ry="11.781"/>
	<g>
		<g>
			<path style="fill:#333132;" d="M52.274,263.699V111.903c0-6.941-0.832-12.91,6.94-20.961c7.775-8.051,18.742-7.106,18.742-7.106
				h62.961h0.002h62.963c0,0,10.97-0.945,18.742,7.106c7.773,8.051,6.941,14.021,6.941,20.961v151.796v124.397
				c0,6.941,0.832,12.91-6.941,20.962c-7.773,8.053-18.742,7.107-18.742,7.107H140.92h-0.002H77.957c0,0-10.968,0.945-18.742-7.107
				c-7.772-8.052-6.94-14.02-6.94-20.962V263.699z"/>
			<g>
				<g>
					<path style="fill:#333132;" d="M225.592,142.365c0,1.316,1.35,2.394,3,2.394h2c1.649,0,3-1.078,3-2.394V127.47
						c0-1.316-1.351-2.394-3-2.394h-2c-1.65,0-3,1.077-3,2.394V142.365z"/>
				</g>
				<g>
					<path style="fill:#333132;" d="M225.592,185.453c0,1.316,1.35,2.394,3,2.394h2c1.649,0,3-1.077,3-2.394v-26.066
						c0-1.316-1.351-2.394-3-2.394h-2c-1.65,0-3,1.078-3,2.394V185.453z"/>
				</g>
				<g>
					<path style="fill:#333132;" d="M225.592,225.35c0,1.316,1.35,2.394,3,2.394h2c1.649,0,3-1.077,3-2.394v-26.066
						c0-1.317-1.351-2.394-3-2.394h-2c-1.65,0-3,1.077-3,2.394V225.35z"/>
				</g>
			</g>
			<g>
				<path style="fill:#333132;" d="M48.248,186.348c0,1.316,1.35,2.394,3,2.394h2c1.648,0,3-1.078,3-2.394v-43.62
					c0-1.316-1.352-2.394-3-2.394h-2c-1.65,0-3,1.078-3,2.394V186.348z"/>
			</g>
		</g>
		<g>
			<g>
				<path style="fill:#545253;" d="M110.316,156.867c0,7.422-6.072,13.496-13.494,13.496h-2.699
					c-7.424,0-13.497-6.073-13.497-13.496v-33.066c0-7.422,6.073-13.496,13.497-13.496h2.699c7.422,0,13.494,6.073,13.494,13.496
					V156.867z"/>
				<path style="fill:#333132;" d="M108.611,156.189c0,6.569-5.374,11.943-11.944,11.943h-2.389
					c-6.569,0-11.943-5.374-11.943-11.943v-31.712c0-6.569,5.374-11.943,11.943-11.943h2.389c6.57,0,11.944,5.375,11.944,11.943
					V156.189z"/>
				<path style="fill:#636263;" d="M106.778,156.429c0,5.652-4.625,10.278-10.279,10.278h-2.053
					c-5.654,0-10.279-4.625-10.279-10.278v-32.19c0-5.652,4.625-10.278,10.279-10.278h2.053c5.654,0,10.279,4.626,10.279,10.278
					V156.429z"/>
			</g>
			<g>
				<path style="fill:#8C8C8C;" d="M100.718,125.143c0,2.897-2.348,5.246-5.245,5.246c-2.897,0-5.245-2.349-5.245-5.246
					c0-2.897,2.348-5.246,5.245-5.246C98.37,119.897,100.718,122.245,100.718,125.143z"/>
				<path style="fill:#8C8C8C;" d="M102.521,139.843c0,3.893-3.156,7.048-7.049,7.048c-3.893,0-7.049-3.155-7.049-7.048
					c0-3.894,3.156-7.049,7.049-7.049C99.365,132.794,102.521,135.95,102.521,139.843z"/>
				<path style="fill:#8C8C8C;" d="M100.718,154.544c0,2.897-2.348,5.245-5.245,5.245c-2.897,0-5.245-2.348-5.245-5.245
					c0-2.897,2.348-5.246,5.245-5.246C98.37,149.298,100.718,151.646,100.718,154.544z"/>
			</g>
		</g>
	</g>
	<g>
		<path style="fill:#333132;" d="M447.727,263.699V111.903c0-6.941,0.832-12.91-6.941-20.961
			c-7.773-8.051-18.742-7.106-18.742-7.106h-62.961h-0.002h-62.963c0,0-10.969-0.945-18.742,7.106s-6.941,14.021-6.941,20.961
			v151.796v124.397c0,6.941-0.832,12.91,6.941,20.962c7.773,8.053,18.742,7.107,18.742,7.107h62.963h0.002h62.961
			c0,0,10.969,0.945,18.742-7.107c7.773-8.052,6.941-14.02,6.941-20.962V263.699z"/>
		<g>
			<defs>
				<path id="SVGID_1_" d="M433.73,261.536v-141.83c0-5.845,0.701-10.872-5.846-17.652c-6.547-6.78-15.783-5.984-15.783-5.984
					h-17.377c0.008,0.141,0.022,0.28,0.022,0.422v2.666c0,4.4-3.6,8-8,8h-55.332c-4.4,0-8-3.6-8-8v-2.666
					c0-0.143,0.014-0.282,0.021-0.422h-17.377c0,0-9.238-0.795-15.783,5.984c-6.547,6.78-5.846,11.807-5.846,17.652v141.83v118.756
					c0,5.846-0.701,10.872,5.846,17.652c6.545,6.782,15.783,5.985,15.783,5.985h53.021h0.002h53.02c0,0,9.236,0.797,15.783-5.985
					c6.547-6.78,5.846-11.807,5.846-17.652V261.536z"/>
			</defs>
			<clipPath id="SVGID_00000147937307099170130000000006900946054531087007_">
				<use xlink:href="#SVGID_1_"  style="overflow:visible;"/>
			</clipPath>
			<g style="clip-path:url(#SVGID_00000147937307099170130000000006900946054531087007_);">
				
					<rect x="138.696" y="81.673" transform="matrix(0.9202 -0.3914 0.3914 0.9202 -16.3532 139.7813)" style="fill:#E69F77;" width="391.999" height="56.66"/>
				
					<rect x="147.3" y="139.584" transform="matrix(0.9202 -0.3914 0.3914 0.9202 -38.3336 147.7702)" style="fill:#E49283;" width="391.999" height="56.661"/>
				
					<rect x="178.164" y="187.556" transform="matrix(0.9202 -0.3914 0.3914 0.9202 -54.6481 163.6781)" style="fill:#E28A8A;" width="391.999" height="56.66"/>
				
					<rect x="193.989" y="242.371" transform="matrix(0.9202 -0.3914 0.3914 0.9202 -74.841 174.2456)" style="fill:#E1818F;" width="392" height="56.66"/>
				
					<rect x="208.258" y="297.764" transform="matrix(0.9202 -0.3914 0.3914 0.9202 -95.384 184.2505)" style="fill:#DC7593;" width="392" height="56.66"/>
				
					<rect x="231.629" y="349.333" transform="matrix(0.9202 -0.3914 0.3914 0.9202 -113.7039 197.5121)" style="fill:#D66E90;" width="392" height="56.66"/>
			</g>
		</g>
		<path style="fill:#282627;" d="M404.529,394.492c0,1.466-1.35,2.667-3,2.667h-43c-1.65,0-3-1.201-3-2.667
			c0-1.467,1.35-2.667,3-2.667h43C403.18,391.825,404.529,393.025,404.529,394.492z"/>
		<path style="opacity:0.1;fill:#FFFDFF;" d="M290.275,397.944c6.545,6.782,15.783,5.985,15.783,5.985h53.021h0.002h53.02
			c0,0,9.236,0.797,15.783-5.985c6.547-6.78,5.846-11.807,5.846-17.652V261.536v-141.83c0-3.658,0.273-6.995-1.125-10.642
			L287.793,394.985C288.478,395.939,289.285,396.919,290.275,397.944z"/>
		<g>
			<path style="fill:#545253;" d="M374.707,95.623c0,1.466-1.35,2.667-3,2.667h-33.998c-1.65,0-3-1.2-3-2.667
				c0-1.467,1.35-2.667,3-2.667h33.998C373.357,92.956,374.707,94.156,374.707,95.623z"/>
			<path style="fill:#545253;" d="M383.365,95.623c0,1.697-1.375,3.072-3.072,3.072c-1.695,0-3.072-1.376-3.072-3.072
				c0-1.697,1.377-3.072,3.072-3.072C381.99,92.55,383.365,93.926,383.365,95.623z"/>
		</g>
		<g>
			<g>
				<path style="fill:#333132;" d="M274.408,142.365c0,1.316-1.35,2.394-3,2.394h-2c-1.648,0-3-1.078-3-2.394V127.47
					c0-1.316,1.352-2.394,3-2.394h2c1.65,0,3,1.077,3,2.394V142.365z"/>
			</g>
			<g>
				<path style="fill:#333132;" d="M274.408,185.453c0,1.316-1.35,2.394-3,2.394h-2c-1.648,0-3-1.077-3-2.394v-26.066
					c0-1.316,1.352-2.394,3-2.394h2c1.65,0,3,1.078,3,2.394V185.453z"/>
			</g>
			<g>
				<path style="fill:#333132;" d="M274.408,225.35c0,1.316-1.35,2.394-3,2.394h-2c-1.648,0-3-1.077-3-2.394v-26.066
					c0-1.317,1.352-2.394,3-2.394h2c1.65,0,3,1.077,3,2.394V225.35z"/>
			</g>
		</g>
		<g>
			<path style="fill:#333132;" d="M451.752,186.348c0,1.316-1.35,2.394-3,2.394h-2c-1.649,0-3-1.078-3-2.394v-43.62
				c0-1.316,1.351-2.394,3-2.394h2c1.65,0,3,1.078,3,2.394V186.348z"/>
		</g>
		<g>
			<path style="fill:#FFFFFF;" d="M330.732,151.409c4.504,0,8.145,3.339,8.641,7.651c0.027,0.078,0.027,0.113,0.07,0.187
				c0.041,0.715,0.07,1.466,0.07,2.252c0,3.488-0.75,7.351-2.508,10.466c-1.799,3.112-4.885,5.552-9.191,5.701h-0.041
				c-0.523,0-0.935-0.375-0.935-0.863c0-0.524,0.383-0.938,0.906-0.974c3.627-0.148,6.033-2.025,7.648-4.766
				c0.893-1.572,1.529-3.375,1.869-5.251c-1.572,1.803-3.895,2.89-6.529,2.89c-4.758,0-8.652-3.824-8.652-8.665
				C322.08,155.275,325.975,151.409,330.732,151.409z M337.602,160.038c0-3.75-3.029-6.791-6.869-6.791
				c-3.74,0-6.826,3.041-6.826,6.791c0,3.824,3.086,6.827,6.826,6.827C334.572,166.864,337.602,163.862,337.602,160.038z"/>
			<path style="fill:#FFFFFF;" d="M348.848,158.161c1.047,0,1.883,0.825,1.883,1.876c0,1.051-0.836,1.877-1.883,1.877
				c-1.049,0-1.871-0.826-1.871-1.877C346.977,158.986,347.799,158.161,348.848,158.161z M348.848,173.917
				c1.047,0,1.883,0.825,1.883,1.873c0,1.052-0.836,1.877-1.883,1.877c-1.049,0-1.871-0.825-1.871-1.877
				C346.977,174.742,347.799,173.917,348.848,173.917z"/>
			<path style="fill:#FFFFFF;" d="M355.348,175.079c-0.367-0.375-0.367-0.973,0-1.313c0.369-0.375,0.977-0.375,1.346,0
				c1.389,1.353,3.158,2.025,4.959,2.025c1.799,0,3.568-0.672,4.955-2.061c1.389-1.388,2.055-3.151,2.055-4.954
				c0-1.838-0.666-3.637-2.025-4.989c-1.346-1.348-3.145-2.025-4.943-2.025c-1.842,0-3.611,0.677-5,2.065
				c-0.369,0.375-0.977,0.375-1.303,0c-0.113-0.075-0.199-0.188-0.227-0.301v-0.035c-0.043-0.04-0.043-0.078-0.043-0.113
				c-0.041-0.075-0.041-0.188-0.041-0.301c0-0.039,0.041-0.113,0.041-0.188l1.275-10.576c0-0.301,0.156-0.527,0.383-0.676
				c0.141-0.148,0.367-0.226,0.594-0.226h12.225c0.523,0,0.949,0.414,0.949,0.938c0,0.563-0.426,0.938-0.949,0.938h-11.432
				l-0.949,7.803c1.361-0.789,2.891-1.2,4.477-1.2c2.281,0,4.533,0.825,6.26,2.588c1.756,1.724,2.594,3.973,2.594,6.299
				c0,2.252-0.838,4.578-2.594,6.302c-1.727,1.689-4.049,2.588-6.301,2.588C359.357,177.667,357.076,176.804,355.348,175.079z"/>
			<path style="fill:#FFFFFF;" d="M377.881,164.538c0-3.527,0.908-6.753,2.521-9.189c1.615-2.326,3.895-3.94,6.559-3.94
				c2.662,0,4.957,1.614,6.572,3.94c1.572,2.436,2.549,5.662,2.549,9.189c0,3.527-0.977,6.752-2.549,9.153
				c-1.615,2.362-3.91,3.976-6.572,3.976c-2.664,0-4.943-1.614-6.559-3.976C378.789,171.29,377.881,168.065,377.881,164.538z
				 M379.723,164.538c0,3.226,0.865,6.115,2.209,8.141c1.361,1.99,3.16,3.151,5.029,3.151c1.883,0,3.639-1.161,5.027-3.151
				c1.346-2.025,2.252-4.915,2.252-8.141s-0.906-6.115-2.252-8.141c-1.389-2.061-3.145-3.151-5.027-3.151
				c-1.869,0-3.668,1.09-5.029,3.151C380.588,158.423,379.723,161.313,379.723,164.538z"/>
		</g>
		<g>
			<g>
				<path style="fill:#FFFFFF;" d="M406.146,105.124c0,0.554-0.447,1.002-1,1.002c-0.555,0-1.002-0.448-1.002-1.002
					c0-0.553,0.447-1.002,1.002-1.002C405.699,104.122,406.146,104.571,406.146,105.124z"/>
				<g>
					<g>
						<path style="fill:#FFFFFF;" d="M403.523,104.467c0.65-1.353,2.428-1.441,3.186-0.129c0.137,0.238,0.506,0.024,0.367-0.215
							c-0.906-1.572-3.129-1.518-3.922,0.129C403.035,104.499,403.404,104.715,403.523,104.467L403.523,104.467z"/>
					</g>
					<g>
						<path style="fill:#FFFFFF;" d="M402.67,103.901c0.996-2.073,3.736-2.196,4.893-0.19c0.137,0.238,0.506,0.023,0.367-0.215
							c-1.305-2.265-4.49-2.177-5.629,0.19C402.182,103.933,402.551,104.149,402.67,103.901L402.67,103.901z"/>
					</g>
					<g>
						<path style="fill:#FFFFFF;" d="M402.037,103.015c1.27-2.39,4.766-2.461,6.215-0.201c0.148,0.231,0.519,0.017,0.369-0.215
							c-1.615-2.518-5.525-2.481-6.953,0.201C401.539,103.043,401.908,103.258,402.037,103.015L402.037,103.015z"/>
					</g>
				</g>
			</g>
			<g>
				<polygon style="fill:#FFFFFF;" points="419.33,102.809 418.639,102.809 418.639,101.803 411.268,101.803 411.268,105.071 
					418.639,105.071 418.639,104.065 419.33,104.065 				"/>
				<rect x="411.617" y="102.077" style="fill:#FFFFFF;" width="6.664" height="2.721"/>
				<rect x="411.762" y="102.223" style="fill:#FFFFFF;" width="6.314" height="2.428"/>
			</g>
		</g>
		<g>
			<g>
				<circle style="opacity:0.2;fill:#333132;" cx="401.182" cy="367.862" r="17.5"/>
				<path style="fill:#FFFFFF;" d="M405.529,362.745v-2.893h-8.695v2.893h-5.088v13.127h18.869v-13.127H405.529z M401.182,372.897
					c-2.221,0-4.02-1.799-4.02-4.018c0-2.219,1.799-4.018,4.02-4.018c2.219,0,4.018,1.799,4.018,4.018
					C405.199,371.099,403.4,372.897,401.182,372.897z"/>
			</g>
			<g>
				<circle style="opacity:0.2;fill:#333132;" cx="316.978" cy="367.862" r="17.5"/>
				<g>
					<g>
						<rect x="313.646" y="359.464" style="fill:#FFFFFF;" width="6.666" height="1"/>
					</g>
					<path style="fill:#FFFFFF;" d="M316.978,361.718L316.978,361.718h-3.332l1.5,2.676v11.867h3.654v-11.867h0.012l1.5-2.676
						H316.978z M317.82,368.001h-1.684v-1.684h1.684V368.001z"/>
				</g>
			</g>
		</g>
	</g>
</g>
</svg>
